<?xml version="1.0" encoding="UTF-8"?>
<!DOCTYPE svg PUBLIC "-//W3C//DTD SVG 1.1//EN" "http://www.w3.org/Graphics/SVG/1.1/DTD/svg11.dtd">
<svg xmlns="http://www.w3.org/2000/svg" version="1.1" width="45px" height="45px" style="shape-rendering:geometricPrecision; text-rendering:geometricPrecision; image-rendering:optimizeQuality; fill-rule:evenodd; clip-rule:evenodd" xmlns:xlink="http://www.w3.org/1999/xlink">
<g><path style="opacity:0.926" fill="#bbc2c5" d="M 15.5,-0.5 C 19.8333,-0.5 24.1667,-0.5 28.5,-0.5C 36.1667,2.5 41.5,7.83333 44.5,15.5C 44.5,19.8333 44.5,24.1667 44.5,28.5C 41.5,36.1667 36.1667,41.5 28.5,44.5C 24.1667,44.5 19.8333,44.5 15.5,44.5C 7.83333,41.5 2.5,36.1667 -0.5,28.5C -0.5,24.1667 -0.5,19.8333 -0.5,15.5C 2.5,7.83333 7.83333,2.5 15.5,-0.5 Z"/></g>
<g><path style="opacity:1" fill="#fdfdfd" d="M 34.5,22.5 C 33.0787,19.9906 31.4121,17.6572 29.5,15.5C 28.9941,13.8946 28.3274,13.5613 27.5,14.5C 24.0317,18.1405 20.6984,21.9739 17.5,26C 15.2922,26.1909 13.2922,26.6909 11.5,27.5C 9.47761,29.5313 7.81094,31.8646 6.5,34.5C 6.44001,35.0431 6.10667,35.3764 5.5,35.5C -3.19536,21.6216 -0.52869,10.455 13.5,2C 33.3701,-1.79058 43.2034,6.37608 43,26.5C 41.4905,24.7923 39.9905,23.1256 38.5,21.5C 37.2638,22.2458 35.9305,22.5792 34.5,22.5 Z"/></g>
<g><path style="opacity:1" fill="#47546e" d="M 29.5,15.5 C 31.4121,17.6572 33.0787,19.9906 34.5,22.5C 33.5248,24.5128 31.8581,25.8461 29.5,26.5C 28.1923,22.6853 28.1923,19.0187 29.5,15.5 Z"/></g>
<g><path style="opacity:1" fill="#e4e8ea" d="M 27.5,14.5 C 25.3599,18.7802 23.1932,23.1136 21,27.5C 20.4574,30.1698 20.9574,32.6698 22.5,35C 20.3997,37.1003 18.2331,39.2669 16,41.5C 13.4954,38.1474 10.3287,35.8141 6.5,34.5C 7.81094,31.8646 9.47761,29.5313 11.5,27.5C 13.2922,26.6909 15.2922,26.1909 17.5,26C 20.6984,21.9739 24.0317,18.1405 27.5,14.5 Z"/></g>
<g><path style="opacity:1" fill="#4b5871" d="M 23.5,25.5 C 24.6291,27.6282 24.7958,29.9615 24,32.5C 22.3364,30.2144 22.1697,27.8811 23.5,25.5 Z"/></g>
<g><path style="opacity:1" fill="#556179" d="M 11.5,27.5 C 16.4964,27.07 17.3298,28.4034 14,31.5C 12.2942,30.6921 11.4609,29.3588 11.5,27.5 Z"/></g>
<g><path style="opacity:1" fill="#4d5972" d="M 33.5,28.5 C 34.5,28.5 35.5,28.5 36.5,28.5C 36.8146,30.2259 36.9813,31.8925 37,33.5C 36.2825,32.5494 35.4491,32.3828 34.5,33C 32.6499,35.0176 30.6499,36.8509 28.5,38.5C 27.5853,37.6721 26.9186,36.6721 26.5,35.5C 27.9089,32.0906 30.2423,29.7573 33.5,28.5 Z"/></g>
</svg>
